<svg width="60" height="60" viewBox="0 0 60 60" fill="none" xmlns="http://www.w3.org/2000/svg">
<path fill-rule="evenodd" clip-rule="evenodd" d="M22.7046 15.2805C25.3818 15.4329 28.0188 16.6353 30.0618 18.8879C32.829 21.9391 34.7131 28.3466 34.8236 34.0694C34.8946 37.7497 34.2598 41.1639 32.4804 43.126C31.5488 44.1532 30.3749 44.64 29.0722 44.7462C28.414 44.6972 27.7335 44.5709 27.0435 44.385C22.7667 43.2325 18.1258 39.7848 15.3475 36.7213C10.8842 31.8001 10.8842 23.8092 15.3475 18.8879C17.3904 16.6353 20.0274 15.4329 22.7046 15.2805ZM21.9196 18.6563C21.0612 17.8648 19.5561 18.099 18.5604 19.179C17.5647 20.259 17.4537 21.7777 18.3122 22.5691C19.1705 23.3605 20.6753 23.1268 21.671 22.0468C22.6667 20.9668 22.778 19.4476 21.9196 18.6563Z" fill="#FF5775"/>
<path d="M37.8782 15.2529C43.4961 15.2529 48 20.3336 48 26.528C48 33.4976 43.867 38.6609 39.3166 41.6875C38.3511 42.3297 37.3667 42.8772 36.3984 43.3245C36.355 43.3184 36.3117 43.3125 36.2683 43.3069C37.6741 40.9555 38.2909 37.6139 38.2216 34.0263C38.1002 27.7411 35.9205 20.7391 32.8814 17.3881C32.7542 17.2479 32.6252 17.1111 32.4944 16.9777C34.0508 15.886 35.8951 15.2529 37.8782 15.2529Z" fill="#FF5775"/>
</svg>
